# xmcd CD database file
#
# Track frame offsets:
#	182
#	8072
#	27482
#	49092
#	63065
#	81730
#	84705
#	103687
#	119892
#	150615
#	166287
#	189512
#	203170
#	230575
#	244280
#	272537
#	291905
#	303357
#
# Disc length: 4225 seconds
#
# Revision: 0
# Processed by: cddbd v1.5.1PL2 Copyright (c) Steve Scherf et al.
# Submitted via: CDex 1.51
#
DISCID=fe107f12
DTITLE=Tusques, François - Le Jardin des Délices
DYEAR=1992
DGENRE=Jazz
TTITLE0=Histoire de la clarinettes basse chassée du jardin des délices
TTITLE1=Bleu gris
TTITLE2=Etre ou ne pas être... là !
TTITLE3=Blues de jean de la croix
TTITLE4=Clarinette basse seule
TTITLE5=Donne moi la vie
TTITLE6=Batterie seule
TTITLE7=Le jardin des délices
TTITLE8=Je suis amour
TTITLE9=La racanaille chavapavarde
TTITLE10=Car musique est une science qui veut qu'on rit et chante et danse
TTITLE11=Au bord de la mer
TTITLE12=Les flamants roses
TTITLE13=Au commencement était la valse
TTITLE14=La valse d'une certaine incertitude enjouée
TTITLE15=Gris bleu...'quelque chose d'amer'
TTITLE16=Strange fruits
TTITLE17=Mieux vaut mourir ivre qu'entendre chanter les grenouilles
EXTD=YEAR: 1992
EXTT0=
EXTT1=
EXTT2=
EXTT3=
EXTT4=
EXTT5=
EXTT6=
EXTT7=
EXTT8=
EXTT9=
EXTT10=
EXTT11=
EXTT12=
EXTT13=
EXTT14=
EXTT15=
EXTT16=
EXTT17=
PLAYORDER=
